<!--<svg xmlns="http://www.w3.org/2000/svg" width="123.719" height="114.111" viewBox="0 0 123.719 114.111">-->
<!--    <path id="Path_13356" d="M125.264,26a10.512,10.512,0,0,1,1.337,9.584l-20.43,67.308a15.345,15.345,0,0,1-5.683,7.986,14.822,14.822,0,0,1-9.1,3.232H22.817a18.187,18.187,0,0,1-11.032-3.975,20.869,20.869,0,0,1-7.392-9.769,13.475,13.475,0,0,1-.149-9.435q0-.3.223-2.006t.3-2.749a4.133,4.133,0,0,0-.223-1.6,3.679,3.679,0,0,1-.223-1.449,4.619,4.619,0,0,1,.594-1.56,18.172,18.172,0,0,1,1.226-1.746A18.172,18.172,0,0,0,7.364,78.08a49.768,49.768,0,0,0,3.343-6.8,40.324,40.324,0,0,0,2.229-6.8,5.8,5.8,0,0,0,.037-2.229,6.526,6.526,0,0,1-.037-2.08A6.226,6.226,0,0,1,14.2,58.1a12.239,12.239,0,0,0,1.263-1.709,45.45,45.45,0,0,0,3.12-6.835,30.405,30.405,0,0,0,1.857-6.686,10.744,10.744,0,0,0-.186-2.377q-.26-1.709.037-2.08a5.959,5.959,0,0,1,1.634-2.266q1.337-1.3,1.634-1.672a30.659,30.659,0,0,0,3.157-6.278,28.155,28.155,0,0,0,2.043-7.169,6.148,6.148,0,0,0-.223-1.894,4.824,4.824,0,0,1-.149-1.969,4.2,4.2,0,0,1,.669-1.337q.52-.743,1.337-1.709t1.263-1.56a16.736,16.736,0,0,0,1.226-2.266q.631-1.374,1.114-2.6t1.189-2.674a12.781,12.781,0,0,1,1.449-2.377A8.6,8.6,0,0,1,38.6.891,4.962,4.962,0,0,1,41.278.037a15.41,15.41,0,0,1,3.529.409l-.074.223A20.687,20.687,0,0,1,48.522,0h56.535a9.785,9.785,0,0,1,8.469,4.16,10.6,10.6,0,0,1,1.337,9.658L94.508,81.126q-2.674,8.841-5.312,11.4T79.65,95.092H15.091a3.274,3.274,0,0,0-2.823,1.114,3.389,3.389,0,0,0-.074,3.195q1.783,5.2,10.7,5.2H91.462a8.247,8.247,0,0,0,4.16-1.152,5.332,5.332,0,0,0,2.6-3.083L120.51,27.042a12,12,0,0,0,.371-4.235A9.823,9.823,0,0,1,125.264,26Z" transform="translate(-3.463)"/>-->
<!--</svg>-->
<svg xmlns="http://www.w3.org/2000/svg" width="123.719" height="114.111" viewBox="0 0 123.719 114.111">
<path id="Path_13356" d="M125.264,26a10.512,10.512,0,0,1,1.337,9.584l-20.43,67.308a15.345,15.345,0,0,1-5.683,7.986,14.822,14.822,0,0,1-9.1,3.232H22.817a18.187,18.187,0,0,1-11.032-3.975,20.869,20.869,0,0,1-7.392-9.769,13.475,13.475,0,0,1-.149-9.435q0-.3.223-2.006t.3-2.749a4.133,4.133,0,0,0-.223-1.6,3.679,3.679,0,0,1-.223-1.449,4.619,4.619,0,0,1,.594-1.56,18.172,18.172,0,0,1,1.226-1.746A18.172,18.172,0,0,0,7.364,78.08a49.768,49.768,0,0,0,3.343-6.8,40.324,40.324,0,0,0,2.229-6.8,5.8,5.8,0,0,0,.037-2.229,6.526,6.526,0,0,1-.037-2.08A6.226,6.226,0,0,1,14.2,58.1a12.239,12.239,0,0,0,1.263-1.709,45.45,45.45,0,0,0,3.12-6.835,30.405,30.405,0,0,0,1.857-6.686,10.744,10.744,0,0,0-.186-2.377q-.26-1.709.037-2.08a5.959,5.959,0,0,1,1.634-2.266q1.337-1.3,1.634-1.672a30.659,30.659,0,0,0,3.157-6.278,28.155,28.155,0,0,0,2.043-7.169,6.148,6.148,0,0,0-.223-1.894,4.824,4.824,0,0,1-.149-1.969,4.2,4.2,0,0,1,.669-1.337q.52-.743,1.337-1.709t1.263-1.56a16.736,16.736,0,0,0,1.226-2.266q.631-1.374,1.114-2.6t1.189-2.674a12.781,12.781,0,0,1,1.449-2.377A8.6,8.6,0,0,1,38.6.891,4.962,4.962,0,0,1,41.278.037a15.41,15.41,0,0,1,3.529.409l-.074.223A20.687,20.687,0,0,1,48.522,0h56.535a9.785,9.785,0,0,1,8.469,4.16,10.6,10.6,0,0,1,1.337,9.658L94.508,81.126q-2.674,8.841-5.312,11.4T79.65,95.092H15.091a3.274,3.274,0,0,0-2.823,1.114,3.389,3.389,0,0,0-.074,3.195q1.783,5.2,10.7,5.2H91.462a8.247,8.247,0,0,0,4.16-1.152,5.332,5.332,0,0,0,2.6-3.083L120.51,27.042a12,12,0,0,0,.371-4.235A9.823,9.823,0,0,1,125.264,26Z" transform="translate(-3.463)"/>
<text id="_Дипломна_робота" transform="translate(24.457 27.687)" fill="#F2F0E7" font-size="11" font-family="Montserrat-BoldItalic, Montserrat" font-weight="700" font-style="italic"><tspan x="0" y="0" xml:space="preserve">  Дипломна</tspan><tspan x="0" y="15">робота</tspan></text>
</svg>
